:SAMPLES-PER-SECOND 24
:FULLY-SPECIFIED
:DEGREES
586
root  14.5652 39.2553 37.2829 -172.818 -15.4694 -178.235
RightUpLeg  -19.4931 19.2975 -16.8066
RightLeg  14.1791 0.957869 -1.97699
RightFoot  -2.344 -0.876129 10.7671
RightToes  -2.08645e-008 3.77894e-005 6.81332e-007
Spine  3.71164 -3.6125 3.05663
Spine1  4.74132 -4.65149 4.08662
HEad  -49.0865 52.3429 -37.8724
LeftShoulder1  6.12445 -12.0083 -33.4813
LeftArm  14.5092 -5.74475 -30.5506
LeftForeArm  153.086 -74.3681 -142.862
LeftHand  -0.440536 -4.01293 5.71145
RightShoulder  3.84379 6.86593 31.1701
RightArm  4.72555 -47.602 22.9348
RightForeArm  25.4851 14.777 8.36344
RightHand  -0.698713 10.0744 -5.63195
LeftUpLeg  -16.1138 -15.8459 2.95528
LeftLeg  31.3987 1.82058 1.54703
LeftFoot  -11.7923 0.0634349 -1.11037
LeftToes  1.24767e-006 1.47042e-008 1.32732e-009
587
root  15.7839 38.2614 36.8484 -174.997 -21.7051 -177.708
RightUpLeg  -17.5203 17.9259 -16.3722
RightLeg  18.3352 1.82605 0.469289
RightFoot  -9.17731 -0.364053 15.8592
RightToes  -2.08645e-008 3.77894e-005 6.81332e-007
Spine  8.57646 -3.35701 3.55282
Spine1  2.06061 -4.21319 4.26037
HEad  -51.2686 52.4702 -39.3768
LeftShoulder1  5.75059 -11.6127 -32.0446
LeftArm  14.8395 -8.02515 -28.6504
LeftForeArm  151.709 -74.8639 -141.372
LeftHand  -0.430518 -4.0624 5.56169
RightShoulder  3.81007 6.91036 30.6813
RightArm  4.39213 -49.0209 19.9682
RightForeArm  25.9203 13.803 8.87629
RightHand  -0.774726 10.129 -6.17955
LeftUpLeg  -17.6584 -8.81009 3.01778
LeftLeg  38.1714 8.52797 7.5062
LeftFoot  -16.4925 -0.0247298 -2.74581
LeftToes  1.24767e-006 1.47042e-008 1.32732e-009
588
root  16.8887 37.3392 36.5858 -177.267 -26.9718 -175.952
RightUpLeg  -17.2954 10.9205 -12.0908
RightLeg  25.4961 4.15891 1.93329
RightFoot  -17.4952 0.685314 15.0953
RightToes  -2.08645e-008 3.77894e-005 6.81332e-007
Spine  12.1506 -3.13652 5.82024
Spine1  1.75771 -3.63256 3.85864
HEad  -57.1822 52.1453 -42.4392
LeftShoulder1  5.73759 -11.6352 -31.8989
LeftArm  12.9887 -11.264 -25.9895
LeftForeArm  148.926 -75.8167 -138.169
LeftHand  -0.433522 -3.90673 5.68198
RightShoulder  3.81376 6.9194 30.6849
RightArm  -4.07988 -46.3319 18.1748
RightForeArm  34.8848 9.0344 9.58328
RightHand  -1.06642 9.79951 -8.51817
LeftUpLeg  -20.4223 -3.76321 4.5054
LeftLeg  44.8257 13.9657 14.7831
LeftFoot  -19.2102 -0.0317099 -2.14567
LeftToes  1.24767e-006 1.47042e-008 1.32732e-009
589
root  17.7492 36.8033 36.3848 -178.475 -32.1761 -174.758
RightUpLeg  -19.3734 4.87514 -9.21481
RightLeg  33.2904 3.99714 2.56347
RightFoot  -20.4014 0.757417 11.1968
RightToes  -2.08645e-008 3.77894e-005 6.81332e-007
Spine  13.5144 -3.17029 7.09765
Spine1  3.16665 -3.5523 3.92075
HEad  -62.2442 51.6328 -43.9787
LeftShoulder1  6.13055 -12.148 -33.1659
LeftArm  11.0155 -12.8669 -24.699
LeftForeArm  133.836 -78.3693 -124.253
LeftHand  -0.551955 -3.6226 7.36756
RightShoulder  3.82416 6.90734 30.8294
RightArm  -10.9285 -40.2997 17.352
RightForeArm  42.979 4.03818 8.31051
RightHand  -1.38525 8.76914 -11.6842
LeftUpLeg  -23.6164 -1.59015 5.73659
LeftLeg  49.0639 15.9365 19.1189
LeftFoot  -19.6584 0.082584 -0.462596
LeftToes  1.24767e-006 1.47042e-008 1.32732e-009
590
root  18.3615 36.7389 36.145 -178.505 -38.7601 -175.311
RightUpLeg  -19.2433 0.48504 -8.71571
RightLeg  36.5082 2.04155 1.34577
RightFoot  -20.6159 0.68762 10.177
RightToes  -2.08645e-008 3.77894e-005 6.81332e-007
Spine  14.0651 -3.42522 5.67186
Spine1  3.79821 -4.31504 5.53687
HEad  -62.1643 51.8121 -41.5982
LeftShoulder1  6.43751 -12.5122 -34.1856
LeftArm  11.4441 -10.7524 -26.3742
LeftForeArm  101.385 -80.2869 -92.2126
LeftHand  -0.719697 -3.04532 10.1371
RightShoulder  3.82657 6.91729 30.8174
RightArm  -10.5415 -36.0454 15.9849
RightForeArm  43.2988 5.52423 8.72906
RightHand  -1.57082 7.85493 -14.0434
LeftUpLeg  -25.6905 -0.76597 5.85124
LeftLeg  49.2163 13.7719 16.8693
LeftFoot  -18.4648 0.0718708 -0.608884
LeftToes  1.24767e-006 1.47042e-008 1.32732e-009
591
root  18.6676 37.129 35.9519 -178.012 -45.7778 -176.423
RightUpLeg  -16.3699 -1.99738 -8.7298
RightLeg  34.5078 -1.8476 -1.61942
RightFoot  -19.9726 0.647514 10.3547
RightToes  -2.08645e-008 3.77894e-005 6.81332e-007
Spine  14.1394 -3.80125 5.0224
Spine1  3.65792 -4.87911 6.08929
HEad  -59.633 52.4556 -38.3937
LeftShoulder1  6.71602 -12.7822 -35.212
LeftArm  12.6333 -4.88856 -27.3745
LeftForeArm  84.0609 -79.9851 -73.0253
LeftHand  -0.775038 -3.00464 10.9422
RightShoulder  3.76209 6.83294 30.4887
RightArm  5.78026 -35.771 16.1079
RightForeArm  25.0561 17.2051 6.62249
RightHand  -1.52162 7.29065 -14.1942
LeftUpLeg  -26.3994 2.24134 5.36608
LeftLeg  45.9148 9.13719 10.3706
LeftFoot  -16.0852 -0.00235939 -2.38321
LeftToes  1.24767e-006 1.47042e-008 1.32732e-009
592
root  18.6686 37.7964 35.8637 -176.591 -51.6693 -177.651
RightUpLeg  -13.6449 -3.8322 -8.85564
RightLeg  30.7186 -6.09156 -4.13898
RightFoot  -16.8108 0.361968 9.97031
RightToes  -2.08645e-008 3.77894e-005 6.81332e-007
Spine  13.2187 -3.81356 6.03399
Spine1  3.24636 -4.44998 4.30861
HEad  -58.4698 53.0654 -37.7235
LeftShoulder1  7.07119 -13.0958 -36.5413
LeftArm  13.5424 4.54306 -25.4699
LeftForeArm  100.042 -80.4151 -88.3945
LeftHand  -0.680495 -3.246 9.38139
RightShoulder  3.67256 6.70724 30.0534
RightArm  10.3915 -36.6158 16.4327
RightForeArm  19.2328 29.6641 5.08564
RightHand  -1.38583 6.92403 -13.3382
LeftUpLeg  -26.8768 8.89766 3.86027
LeftLeg  41.0884 5.89624 5.85529
LeftFoot  -13.8262 -0.0067972 -4.10555
LeftToes  1.24767e-006 1.47042e-008 1.32732e-009
593
root  18.4953 38.5352 35.8539 -174.173 -56.749 -179.208
RightUpLeg  -11.3676 -6.416 -9.51928
RightLeg  26.327 -8.77116 -4.91972
RightFoot  -12.7469 0.048662 11.3908
RightToes  -2.08645e-008 3.77894e-005 6.81332e-007
Spine  11.7481 -2.97921 6.61525
Spine1  2.37242 -3.23119 2.47173
HEad  -58.245 53.1307 -38.4238
LeftShoulder1  7.18706 -13.1713 -37.0284
LeftArm  15.5649 15.2561 -22.6805
LeftForeArm  124.22 -79.4384 -114.441
LeftHand  -0.576688 -3.07041 8.15077
RightShoulder  3.67454 6.71908 30.0301
RightArm  8.15807 -36.7615 15.8266
RightForeArm  23.033 39.9401 7.90701
RightHand  -1.33418 6.77657 -13.0049
LeftUpLeg  -27.9216 17.0002 1.27256
LeftLeg  35.7189 7.23011 5.88554
LeftFoot  -12.2056 0.0351944 -4.97146
LeftToes  1.24767e-006 1.47042e-008 1.32732e-009
594
root  18.2327 39.1313 35.9325 -173.082 -62.3986 -179.682
RightUpLeg  -8.35348 -9.73972 -9.81753
RightLeg  22.0316 -10.7094 -4.94204
RightFoot  -9.20216 -0.312698 13.2887
RightToes  -2.08645e-008 3.77894e-005 6.81332e-007
Spine  10.6333 -1.59057 7.18044
Spine1  1.4375 -1.63308 1.48732
HEad  -57.6073 52.238 -38.6142
LeftShoulder1  7.07435 -13.0618 -36.6447
LeftArm  18.3543 23.7381 -19.7481
LeftForeArm  134.159 -78.1928 -125.395
LeftHand  -0.530429 -3.24263 7.37859
RightShoulder  3.70572 6.74623 30.243
RightArm  6.54538 -36.5539 15.6118
RightForeArm  25.1893 48.9356 10.992
RightHand  -1.2939 6.46943 -12.9339
LeftUpLeg  -29.1809 22.9721 -0.670766
LeftLeg  30.846 11.255 7.50097
LeftFoot  -11.0593 0.0766563 -4.47091
LeftToes  1.24767e-006 1.47042e-008 1.32732e-009
595
root  17.8778 39.4251 36.1014 -175.045 -68.9597 -177.495
RightUpLeg  -5.26863 -13.4755 -9.31357
RightLeg  19.8266 -12.3872 -5.07936
RightFoot  -6.42902 -0.653878 14.152
RightToes  -2.08645e-008 3.77894e-005 6.81332e-007
Spine  9.81021 -0.170091 8.48984
Spine1  0.756732 -0.051141 0.843322
HEad  -56.5715 50.7003 -37.9512
LeftShoulder1  6.85667 -12.9101 -35.7365
LeftArm  20.2193 28.8007 -16.281
LeftForeArm  136.102 -77.966 -127.038
LeftHand  -0.409287 -3.71873 5.47921
RightShoulder  3.71215 6.71527 30.4187
RightArm  3.42849 -35.176 17.3485
RightForeArm  27.7492 56.2015 14.4646
RightHand  -1.31285 5.83115 -13.8286
LeftUpLeg  -30.1761 24.9329 -0.778488
LeftLeg  26.7734 13.6893 7.72297
LeftFoot  -10.923 0.0790589 -3.73658
LeftToes  1.24767e-006 1.47042e-008 1.32732e-009
596
root  17.4763 39.3796 36.262 -178.832 -75.2832 -173.297
RightUpLeg  -3.05226 -16.0358 -8.70582
RightLeg  19.6087 -14.7268 -5.66708
RightFoot  -5.91568 -0.829419 16.5904
RightToes  -2.08645e-008 3.77894e-005 6.81332e-007
Spine  9.02833 1.38771 8.3605
Spine1  -0.266579 1.42598 0.831458
HEad  -55.2295 49.0225 -36.1102
LeftShoulder1  6.48957 -12.6316 -34.2091
LeftArm  20.6579 31.4272 -13.2915
LeftForeArm  130.152 -78.8354 -120.586
LeftHand  -0.312742 -3.92611 4.16815
RightShoulder  3.78368 6.78244 30.8833
RightArm  0.834524 -31.8594 20.67
RightForeArm  31.7641 62.1981 18.5107
RightHand  -1.35313 4.93694 -15.4112
LeftUpLeg  -31.6159 24.7525 -0.0950256
LeftLeg  22.6097 13.7587 6.53761
LeftFoot  -10.8248 0.0810373 -3.60287
LeftToes  1.24767e-006 1.47042e-008 1.32732e-009
